<svg width="32" height="32" viewBox="0 0 32 32" fill="none" xmlns="http://www.w3.org/2000/svg">
<path d="M27.9394 8.99951H3.56063C2.61629 8.99951 1.71063 9.37465 1.04288 10.0424C0.375136 10.7101 0 11.6158 0 12.5601V12.937C0 13.0862 0.0592633 13.2293 0.164753 13.3348C0.270242 13.4402 0.413316 13.4995 0.5625 13.4995H31.5V12.5601C31.5 11.6158 31.1249 10.7101 30.4571 10.0424C29.7894 9.37465 28.8837 8.99951 27.9394 8.99951Z" fill="#0088CF"/>
<path d="M30.8081 17.9995H0.691875C0.508378 17.9995 0.332397 18.0724 0.202645 18.2022C0.0728937 18.3319 0 18.5079 0 18.6914V27.9389C0 28.8832 0.375136 29.7889 1.04288 30.4566C1.71063 31.1244 2.61629 31.4995 3.56063 31.4995H27.9394C28.8837 31.4995 29.7894 31.1244 30.4571 30.4566C31.1249 29.7889 31.5 28.8832 31.5 27.9389V18.6914C31.5 18.5079 31.4271 18.3319 31.2974 18.2022C31.1676 18.0724 30.9916 17.9995 30.8081 17.9995ZM19.125 20.2495H22.4381C22.7146 20.2387 22.986 20.3268 23.2035 20.4979C23.421 20.669 23.5704 20.912 23.625 21.1833C23.6531 21.3462 23.645 21.5133 23.6012 21.6727C23.5574 21.8321 23.479 21.9799 23.3716 22.1056C23.2642 22.2312 23.1304 22.3317 22.9797 22.3998C22.8291 22.4679 22.6653 22.5019 22.5 22.4995H19.1869C18.9104 22.5103 18.639 22.4222 18.4215 22.2511C18.204 22.08 18.0546 21.8371 18 21.5658C17.9719 21.4029 17.98 21.2357 18.0238 21.0763C18.0676 20.9169 18.146 20.7691 18.2534 20.6435C18.3608 20.5178 18.4946 20.4173 18.6453 20.3492C18.7959 20.2812 18.9597 20.2471 19.125 20.2495ZM14.5519 24.3445C14.4377 24.8632 14.2027 25.3476 13.866 25.7583C13.5293 26.1691 13.1004 26.4946 12.6142 26.7083C12.1281 26.9221 11.5983 27.0181 11.068 26.9886C10.5377 26.959 10.0219 26.8047 9.5625 26.5383C9.09908 26.8059 8.57867 26.9594 8.04421 26.9863C7.50975 27.0132 6.97656 26.9126 6.48865 26.6928C6.00073 26.473 5.57206 26.1403 5.23803 25.7223C4.904 25.3042 4.67416 24.8127 4.5675 24.2883C4.46929 23.7986 4.48096 23.2933 4.60165 22.8088C4.72234 22.3242 4.94906 21.8725 5.26545 21.4861C5.58185 21.0998 5.98003 20.7885 6.43129 20.5746C6.88255 20.3608 7.37564 20.2497 7.875 20.2495C8.46848 20.2507 9.05095 20.4099 9.5625 20.7108C10.1287 20.3827 10.7782 20.2264 11.4317 20.2607C12.0852 20.2951 12.7146 20.5187 13.2433 20.9044C13.772 21.29 14.1772 21.8211 14.4095 22.4328C14.6418 23.0446 14.6913 23.7108 14.5519 24.3501V24.3445ZM19.9237 26.6676C19.8191 26.7729 19.6946 26.8564 19.5575 26.9134C19.4205 26.9704 19.2735 26.9996 19.125 26.9995C18.9032 26.9986 18.6866 26.9321 18.5025 26.8084C18.3183 26.6847 18.1749 26.5094 18.0901 26.3044C18.0053 26.0994 17.9831 25.8739 18.0261 25.6563C18.0691 25.4387 18.1755 25.2387 18.3319 25.0814C18.547 24.8781 18.8318 24.7648 19.1278 24.7648C19.4238 24.7648 19.7086 24.8781 19.9237 25.0814C20.1333 25.2922 20.2509 25.5773 20.2509 25.8745C20.2509 26.1717 20.1333 26.4569 19.9237 26.6676ZM25.875 26.9995H22.5619C22.2854 27.0103 22.014 26.9222 21.7965 26.7511C21.579 26.58 21.4296 26.3371 21.375 26.0658C21.3469 25.9029 21.355 25.7357 21.3988 25.5763C21.4426 25.4169 21.521 25.2691 21.6284 25.1435C21.7358 25.0178 21.8696 24.9173 22.0203 24.8492C22.1709 24.7812 22.3347 24.7471 22.5 24.7495H25.8131C26.0896 24.7387 26.361 24.8268 26.5785 24.9979C26.796 25.169 26.9454 25.412 27 25.6833C27.0281 25.8462 27.02 26.0133 26.9762 26.1727C26.9324 26.3321 26.854 26.4799 26.7466 26.6056C26.6392 26.7312 26.5054 26.8317 26.3547 26.8998C26.2041 26.9679 26.0403 27.0019 25.875 26.9995ZM26.6681 22.1676C26.6185 22.2219 26.5617 22.2692 26.4994 22.3083C26.4401 22.3514 26.3759 22.3873 26.3081 22.4151C26.2395 22.4441 26.1678 22.4648 26.0944 22.477C26.0224 22.4932 25.9488 22.5008 25.875 22.4995C25.5766 22.4995 25.2905 22.381 25.0795 22.17C24.8685 21.959 24.75 21.6729 24.75 21.3745C24.7417 21.3016 24.7417 21.228 24.75 21.1551C24.7644 21.0841 24.7851 21.0144 24.8119 20.947C24.8407 20.8779 24.8765 20.8119 24.9187 20.7501C24.9577 20.6877 25.005 20.6309 25.0594 20.5814C25.109 20.5271 25.1658 20.4798 25.2281 20.4408C25.29 20.3987 25.356 20.3629 25.425 20.3339C25.4916 20.3048 25.5615 20.284 25.6331 20.272C25.778 20.2432 25.927 20.2432 26.0719 20.272C26.1452 20.2847 26.2169 20.3055 26.2856 20.3339C26.3523 20.3641 26.4162 20.3998 26.4769 20.4408C26.5392 20.4798 26.596 20.5271 26.6456 20.5814C26.7543 20.6835 26.8416 20.8062 26.9025 20.9424C26.9633 21.0785 26.9964 21.2254 27 21.3745C26.9987 21.6724 26.8794 21.9576 26.6681 22.1676Z" fill="#0088CF"/>
<path d="M20.07 0.415681L9.10126 6.74943H27.3263L24.3281 1.55756C23.914 0.842392 23.2333 0.320593 22.4351 0.106545C21.6369 -0.107503 20.7864 0.00366557 20.07 0.415681Z" fill="#0088CF"/>
</svg>
