<svg width="20" height="25" viewBox="0 0 20 25" fill="none" xmlns="http://www.w3.org/2000/svg">
<path d="M9.625 0C7.07322 0.00302774 4.62682 1.01806 2.82244 2.82244C1.01806 4.62682 0.00302774 7.07322 0 9.625C0 17.8606 8.75 24.0813 9.12256 24.3419C9.2699 24.4448 9.44528 24.5 9.625 24.5C9.80472 24.5 9.9801 24.4448 10.1274 24.3419C10.5 24.0813 19.25 17.8606 19.25 9.625C19.247 7.07322 18.2319 4.62682 16.4276 2.82244C14.6232 1.01806 12.1768 0.00302745 9.625 0ZM9.62564 6.12532C10.3179 6.12532 10.9946 6.33059 11.5701 6.71517C12.1457 7.09976 12.5943 7.64638 12.8592 8.28592C13.1241 8.92547 13.1934 9.6292 13.0584 10.3081C12.9233 10.9871 12.59 11.6107 12.1005 12.1002C11.611 12.5897 10.9874 12.923 10.3085 13.0581C9.62952 13.1931 8.92579 13.1238 8.28625 12.8589C7.64671 12.594 7.10008 12.1454 6.7155 11.5698C6.33091 10.9942 6.12564 10.3176 6.12564 9.62532C6.12563 9.16569 6.21615 8.71056 6.39204 8.28591C6.56792 7.86126 6.82573 7.47542 7.15074 7.15041C7.47575 6.82541 7.86159 6.5676 8.28623 6.39171C8.71088 6.21583 9.16601 6.1253 9.62564 6.12532Z" fill="#0088CF"/>
</svg>
