<svg width="170" height="170" viewBox="0 0 170 170" fill="none" xmlns="http://www.w3.org/2000/svg">
<g clip-path="url(#clip0_1_65)">
<path d="M133.214 46.7466L65.0041 22.5296C64.4985 22.35 63.9624 22.2718 63.4265 22.2995C62.8907 22.3271 62.3655 22.46 61.881 22.6906C61.3965 22.9212 60.9622 23.245 60.6029 23.6435C60.2435 24.042 59.9662 24.5073 59.7867 25.013L26.367 119.144C26.1875 119.65 26.1093 120.186 26.1369 120.722C26.1645 121.257 26.2974 121.783 26.528 122.267C26.7586 122.752 27.0824 123.186 27.4809 123.545C27.8794 123.905 28.3447 124.182 28.8504 124.361L97.0607 148.578C100.418 149.766 104.109 149.574 107.324 148.044C110.539 146.513 113.016 143.77 114.211 140.415L141.377 63.8964C142.565 60.5395 142.373 56.8485 140.843 53.6333C139.312 50.418 136.569 47.9413 133.214 46.7466ZM90.5496 126.995L56.3201 114.842C55.2989 114.48 54.4636 113.726 53.9979 112.748C53.5321 111.769 53.4742 110.646 53.8367 109.625C54.1993 108.603 54.9527 107.768 55.9311 107.302C56.9096 106.837 58.033 106.779 59.0542 107.141L93.2836 119.294C94.3048 119.656 95.1401 120.41 95.6059 121.388C96.0716 122.367 96.1295 123.49 95.767 124.511C95.4044 125.532 94.6511 126.368 93.6726 126.834C92.6942 127.299 91.5708 127.357 90.5496 126.995ZM79.5112 103.804C74.5184 102.031 70.1634 98.8177 66.9969 94.5701C63.8304 90.3224 61.9945 85.2311 61.7216 79.94C61.4486 74.649 62.7507 69.3958 65.4633 64.8448C68.1758 60.2938 72.177 56.6494 76.9609 54.3724C81.7447 52.0954 87.0963 51.2881 92.3389 52.0526C97.5816 52.8171 102.48 55.1191 106.414 58.6674C110.348 62.2157 113.142 66.851 114.442 71.9871C115.742 77.1232 115.49 82.5295 113.717 87.5222C111.334 94.2125 106.394 99.6841 99.9811 102.736C93.5683 105.789 86.2066 106.173 79.5112 103.804Z" fill="#F5F5F9"/>
<path d="M70.6286 76.6877L73.1788 77.6472C72.8358 79.3757 73.7823 81.1474 75.4856 81.7883C77.189 82.4292 79.0686 81.7208 79.9501 80.1949L95.493 86.0429C95.1501 87.7714 96.0965 89.5432 97.7999 90.1841C99.5033 90.825 101.383 90.1165 102.264 88.5906L104.487 89.4268C105.033 89.6323 105.661 89.4226 106.031 88.9113L106.196 88.6832C106.278 88.5705 106.343 88.448 106.391 88.3204C106.508 88.0094 106.524 87.667 106.428 87.352C106.335 87.0412 106.348 86.6988 106.466 86.3843L106.922 85.172L107.049 84.4897C107.206 83.6426 107.142 82.779 106.865 81.9936L105.459 78.0123C105.387 77.8063 105.392 77.5769 105.47 77.3694C105.497 77.2989 105.532 77.2315 105.574 77.1682C105.919 76.6557 105.702 75.9617 105.151 75.8143L103.046 75.2514L96.6812 72.5552C95.9594 72.2496 95.2226 71.9823 94.4724 71.7536L89.7442 70.3136C89.2616 70.1656 88.7518 70.1195 88.2424 70.1787L82.2712 70.8726C81.9142 70.914 81.5571 70.9042 81.2082 70.8429L76.1138 69.9545C75.2685 69.8069 74.3891 70.1636 73.8138 70.8867L73.0825 71.8074C72.8282 72.1272 72.5092 72.3815 72.152 72.5486L71.8176 72.7048C71.6634 72.7773 71.5299 72.8933 71.4316 73.0403L70.6406 74.2241L70.1557 75.5131C69.9741 75.9955 70.1859 76.5212 70.6286 76.6877ZM104.591 82.0893L105.973 82.9692C106.068 83.0298 106.128 83.1332 106.132 83.2459L106.176 84.4244C106.18 84.5506 106.115 84.6692 106.006 84.7332L105.79 84.8602C105.646 84.9442 105.464 84.9137 105.356 84.7877L104.335 83.5993C104.296 83.5537 104.27 83.4987 104.259 83.4397L104.07 82.4425C104.014 82.1473 104.338 81.9278 104.591 82.0893ZM93.7922 79.8694L92.6769 79.4498C92.4352 79.3589 92.313 79.0893 92.4039 78.8476C92.4949 78.606 92.7645 78.4837 93.0061 78.5747L94.1215 78.9943C94.3631 79.0852 94.4853 79.3549 94.3944 79.5965C94.3035 79.8381 94.0339 79.9603 93.7922 79.8694ZM96.741 87.4398C96.6509 87.1327 96.6204 86.8074 96.6575 86.4811C96.6667 86.3941 96.6812 86.3073 96.7003 86.2205C96.7874 86.2779 96.8887 86.3301 97.001 86.3724C97.1647 86.434 97.3252 86.465 97.4642 86.4673C97.446 86.5704 97.4377 86.6736 97.4394 86.7753C97.4405 86.9003 97.4564 87.0238 97.4859 87.1436C97.3474 87.1556 97.1898 87.1967 97.0304 87.269C96.9214 87.3179 96.824 87.377 96.741 87.4398ZM99.3759 85.1252C99.1472 85.0849 98.9174 85.0943 98.6994 85.1474C98.688 85.0091 98.647 84.8509 98.5746 84.692C98.5251 84.5829 98.4665 84.4857 98.4037 84.4027C98.7917 84.2883 99.2102 84.2695 99.6226 84.3618C99.5651 84.4489 99.5129 84.5503 99.4707 84.6625C99.4091 84.8262 99.3786 84.9868 99.3759 85.1252ZM98.1419 85.4C97.9584 85.5285 97.7998 85.6956 97.6798 85.8943C97.5735 85.805 97.4325 85.722 97.2689 85.6604C97.1566 85.6182 97.046 85.5906 96.9426 85.5764C97.1456 85.2056 97.435 84.9032 97.7768 84.6868C97.7978 84.7887 97.8323 84.8969 97.8818 85.006C97.954 85.1655 98.0455 85.3004 98.1419 85.4ZM97.9148 88.901C97.544 88.698 97.2417 88.408 97.0252 88.0668C97.1271 88.0458 97.2353 88.0113 97.3444 87.9618C97.5038 87.8896 97.6389 87.7976 97.7386 87.7011C97.8676 87.8848 98.0342 88.0433 98.2327 88.1638C98.1434 88.2701 98.0604 88.411 97.9988 88.5747C97.9565 88.687 97.9289 88.7976 97.9148 88.901ZM98.8579 87.3719C98.7673 87.3378 98.6882 87.2857 98.6238 87.221C98.4453 87.0427 98.3768 86.7701 98.4711 86.5195C98.5997 86.1776 98.9823 86.0042 99.3241 86.1329C99.6659 86.2615 99.8393 86.644 99.7107 86.9858C99.6164 87.2365 99.3852 87.3964 99.1335 87.4127C99.0424 87.4189 98.9485 87.406 98.8579 87.3719ZM98.5587 89.1433C98.6162 89.0562 98.6689 88.955 98.7112 88.8427C98.7728 88.679 98.8033 88.5183 98.8056 88.3794C99.0348 88.4198 99.2646 88.4104 99.4826 88.3573C99.4941 88.4956 99.535 88.6538 99.6073 88.8132C99.6567 88.9223 99.7153 89.0196 99.7782 89.1026C99.3904 89.2165 98.9719 89.2353 98.5587 89.1433ZM101.1 88.1525C100.913 88.4223 100.675 88.6466 100.405 88.8184C100.384 88.7165 100.35 88.6078 100.3 88.4992C100.228 88.3398 100.136 88.2047 100.04 88.1046C100.141 88.034 100.235 87.9516 100.318 87.8583C100.386 87.7829 100.448 87.6998 100.502 87.6104C100.608 87.7002 100.75 87.7827 100.913 87.8443C101.025 87.8865 101.136 87.9141 101.24 87.9283C101.197 88.0062 101.15 88.081 101.1 88.1525ZM101.441 86.0655C101.555 86.4532 101.574 86.8717 101.482 87.2843C101.395 87.2269 101.293 87.1746 101.181 87.1324C101.017 87.0708 100.857 87.0403 100.718 87.0375C100.759 86.8089 100.749 86.5787 100.696 86.3611C100.834 86.3495 100.992 86.3086 101.152 86.2363C101.261 86.1869 101.358 86.1282 101.441 86.0655ZM100.838 85.5434C100.678 85.6152 100.543 85.7071 100.443 85.8036C100.315 85.6199 100.148 85.4615 99.9489 85.3407C100.039 85.2352 100.122 85.0942 100.183 84.9305C100.225 84.8183 100.252 84.7074 100.267 84.6041C100.638 84.8065 100.94 85.0967 101.157 85.4385C101.055 85.4595 100.947 85.4939 100.838 85.5434ZM98.6208 74.8702L102.509 76.5174C102.527 76.5247 102.544 76.5317 102.562 76.5383C102.604 76.5542 102.647 76.568 102.691 76.5797L103.335 76.752C103.433 76.7781 103.476 76.8924 103.42 76.9762L102.809 77.8857C102.283 78.6697 101.334 79.0554 100.41 78.86L98.4576 78.3619C98.3607 78.3372 98.3174 78.2259 98.3696 78.1407C98.37 78.1401 98.3704 78.1395 98.3707 78.1389C98.7533 77.5129 98.864 76.7768 98.6824 76.0659L98.4208 75.0421C98.3907 74.9242 98.5087 74.8227 98.6208 74.8702ZM82.4 72.2418C82.4098 72.2407 82.4197 72.2396 82.4295 72.2385L88.401 71.5446C88.7221 71.5072 89.0382 71.5353 89.3407 71.6282L94.0717 73.069C94.5011 73.1999 94.9315 73.3463 95.3506 73.504C95.6164 73.604 95.8836 73.7108 96.1449 73.8214C96.5299 73.9845 96.8166 74.318 96.9201 74.7231L97.3502 76.4063C97.5341 77.1264 97.088 77.8563 96.3633 78.0211L95.9234 78.1211C95.6757 78.1774 95.4169 78.1611 95.1783 78.074L82.25 73.3598C82.0567 73.2893 81.9109 73.1191 81.8769 72.9055C81.825 72.5786 82.071 72.278 82.4 72.2418ZM74.4267 79.0441C74.3371 78.7371 74.3062 78.4117 74.3432 78.0854C74.3525 77.9984 74.3669 77.9116 74.386 77.8247C74.4731 77.8822 74.5745 77.9344 74.6867 77.9766C74.8505 78.0383 75.0109 78.0692 75.1499 78.0716C75.1317 78.1746 75.1234 78.2779 75.1251 78.3796C75.1263 78.5046 75.1421 78.6281 75.1716 78.7479C75.0336 78.76 74.8755 78.801 74.7161 78.8733C74.6072 78.9222 74.5097 78.9813 74.4267 79.0441ZM75.601 80.5054C75.2303 80.3025 74.9275 80.0123 74.7109 79.671C74.8129 79.6501 74.9211 79.6155 75.0302 79.5661C75.1896 79.4938 75.3247 79.4019 75.4244 79.3054C75.5533 79.4891 75.72 79.6476 75.919 79.7683C75.8291 79.8743 75.7461 80.0153 75.6846 80.179C75.6423 80.2912 75.6152 80.4021 75.601 80.5054ZM76.245 80.7477C76.3025 80.6607 76.3547 80.5592 76.3969 80.447C76.4585 80.2833 76.489 80.1226 76.4919 79.9838C76.7206 80.0241 76.9504 80.0147 77.1684 79.9616C77.1798 80.0999 77.2208 80.2581 77.293 80.4175C77.3425 80.5266 77.4011 80.6239 77.4639 80.7068C77.0761 80.8207 76.6577 80.8396 76.245 80.7477ZM78.7857 79.7568C78.5984 80.0266 78.361 80.2511 78.0908 80.4227C78.0698 80.3207 78.0355 80.212 77.9859 80.1035C77.9136 79.9441 77.8222 79.8092 77.726 79.7089C77.8272 79.6383 77.9205 79.5558 78.0037 79.4626C78.0721 79.3872 78.1338 79.3041 78.1881 79.2146C78.2942 79.3045 78.4353 79.387 78.5989 79.4486C78.7112 79.4908 78.8219 79.5183 78.9252 79.5325C78.8824 79.6105 78.8361 79.6853 78.7857 79.7568ZM78.8373 77.8406C78.9464 77.7912 79.0437 77.7326 79.1267 77.6698C79.2411 78.0577 79.2594 78.476 79.1676 78.8886C79.0805 78.8312 78.9791 78.7789 78.8668 78.7367C78.7031 78.6751 78.5425 78.6446 78.4037 78.6418C78.4444 78.4132 78.4353 78.183 78.382 77.9655C78.5202 77.954 78.6779 77.9128 78.8373 77.8406ZM77.9529 76.2085C78.3239 76.411 78.6261 76.701 78.8425 77.0427C78.7406 77.0637 78.6324 77.0982 78.5233 77.1477C78.3641 77.2194 78.229 77.3114 78.1293 77.4078C78.0003 77.2242 77.8337 77.0657 77.6352 76.9452C77.7243 76.8394 77.8073 76.6985 77.8689 76.5348C77.9111 76.4226 77.9387 76.3119 77.9529 76.2085ZM77.3965 78.5901C77.3022 78.8408 77.071 79.0007 76.8192 79.017C76.7281 79.0233 76.6343 79.0103 76.5437 78.9762C76.4531 78.9421 76.374 78.89 76.3096 78.8252C76.131 78.647 76.0626 78.3744 76.1569 78.1237C76.2855 77.7819 76.6681 77.6085 77.0099 77.7371C77.3518 77.8657 77.5251 78.2483 77.3965 78.5901ZM77.3089 75.9662C77.2515 76.0533 77.1987 76.1545 77.1565 76.2667C77.0949 76.4304 77.0644 76.5911 77.0622 76.7296C76.833 76.6892 76.6032 76.6985 76.3852 76.7516C76.3738 76.6134 76.3328 76.4551 76.2604 76.2963C76.2109 76.1872 76.1523 76.0899 76.0895 76.0069C76.4775 75.8926 76.8965 75.874 77.3089 75.9662ZM75.5675 76.6103C75.6397 76.7697 75.7317 76.9048 75.8276 77.0044C75.6442 77.1328 75.4855 77.2999 75.3655 77.4987C75.2592 77.4093 75.1183 77.3263 74.9546 77.2647C74.8424 77.2225 74.7317 77.195 74.6283 77.1807C74.8313 76.8099 75.1213 76.5077 75.4625 76.2911C75.4836 76.393 75.518 76.5012 75.5675 76.6103ZM73.7734 72.2331L74.5831 71.3758C74.6606 71.2938 74.7734 71.2551 74.8848 71.2723L76.504 71.5215C76.8011 71.5673 76.9 71.9458 76.6632 72.131L75.8639 72.7563C75.8166 72.7933 75.7604 72.8172 75.7009 72.8257L74.1504 73.0469C73.9861 73.0704 73.8286 72.9729 73.7763 72.8154L73.6971 72.5769C73.6573 72.457 73.6866 72.325 73.7734 72.2331Z" fill="#F5F5F9"/>
</g>
<defs>
<clipPath id="clip0_1_65">
<rect width="131.89" height="131.89" fill="white" transform="translate(45.4572) rotate(20.161)"/>
</clipPath>
</defs>
</svg>
