<svg width="41" height="42" viewBox="0 0 41 42" fill="none" xmlns="http://www.w3.org/2000/svg">
<g clip-path="url(#clip0_1_185)">
<path d="M20.6708 3.41992C20.3292 3.41992 19.8167 3.59092 19.475 3.93291L16.0583 7.01087L11.7875 6.32688C10.7625 6.15588 9.90832 6.83987 9.73749 7.86586L9.05415 12.1408L5.12499 14.1928C4.27082 14.7058 3.92915 15.7317 4.27082 16.5867L6.32082 20.5197L4.44165 24.4526C4.09999 25.3076 4.44165 26.3336 5.12499 26.8466L9.05415 28.8985L9.73749 33.1735C9.90832 34.1995 10.7625 34.7125 11.7875 34.7125L16.0583 34.0285L19.1333 37.1064C19.8167 37.7904 20.8417 37.7904 21.525 37.1064L24.6 34.0285L28.8708 34.7125C29.8958 34.8835 30.75 34.1995 30.9208 33.1735L31.6042 28.8985L35.5333 26.8466C36.3875 26.3336 36.7292 25.3076 36.2167 24.4526L34.6792 20.5197L36.5583 16.5867C36.9 15.7317 36.5583 14.7058 35.875 14.1928L31.9458 12.1408L31.2625 7.86586C31.0917 6.83987 30.2375 6.32688 29.2125 6.32688L24.9417 7.01087L21.8667 3.93291C21.525 3.59092 21.0125 3.41992 20.6708 3.41992ZM16.9125 11.9698C17.9375 11.9698 18.7917 12.3118 19.3042 12.9958C19.9875 13.6798 20.1583 14.3638 20.1583 15.3897V16.2447C20.1583 17.2707 19.8167 18.1257 19.3042 18.6387C18.7917 19.3227 17.9375 19.6647 16.9125 19.6647C15.8875 19.6647 15.0333 19.3227 14.5208 18.8097C14.0083 18.1257 13.6667 17.2707 13.6667 16.2447V15.3897C13.6667 14.3638 14.0083 13.6798 14.5208 12.9958C15.0333 12.3118 15.8875 11.9698 16.9125 11.9698ZM16.9125 13.6798C16.5708 13.6798 16.2292 14.0218 16.0583 14.1928C15.8875 14.5348 15.7167 14.8768 15.7167 15.3897V16.2447C15.7167 16.7577 15.8875 17.0997 16.0583 17.4417C16.2292 17.7837 16.5708 17.9547 16.9125 17.9547C17.2542 17.9547 17.5958 17.7837 17.7667 17.4417C17.9375 17.0997 18.1083 16.7577 18.1083 16.2447V15.3897C18.1083 14.8768 17.9375 14.5348 17.7667 14.1928C17.5958 13.8508 17.2542 13.6798 16.9125 13.6798ZM23.2333 13.6798L24.7708 14.5348L17.7667 27.5306L16.2292 26.6756L23.2333 13.6798ZM24.0875 21.3747C25.1125 21.3747 25.9667 21.7167 26.4792 22.4006C26.9917 23.0846 27.3333 23.9396 27.3333 24.7946V25.6496C27.3333 26.6756 26.9917 27.5306 26.4792 28.0436C25.9667 28.5565 25.1125 29.0695 24.0875 29.0695C23.0625 29.0695 22.2083 28.7275 21.6958 28.0436C21.1833 27.3596 20.8417 26.5046 20.8417 25.6496V24.7946C20.8417 23.7686 21.1833 23.0846 21.6958 22.4006C22.2083 21.7167 23.0625 21.3747 24.0875 21.3747ZM24.0875 23.0846C23.7458 23.0846 23.4042 23.2556 23.2333 23.5976C23.0625 23.9396 22.8917 24.2816 22.8917 24.7946V25.6496C22.8917 26.1626 23.0625 26.5046 23.2333 26.8466C23.4042 27.1886 23.7458 27.3596 24.0875 27.3596C24.6 27.3596 24.7708 27.1886 24.9417 26.8466C25.1125 26.5046 25.1125 26.1626 25.1125 25.6496V24.7946C25.1125 24.2816 24.9417 23.9396 24.7708 23.5976C24.7708 23.2556 24.4292 23.0846 24.0875 23.0846Z" fill="#0088CF"/>
</g>
<defs>
<clipPath id="clip0_1_185">
<rect width="41" height="41.0394" fill="white"/>
</clipPath>
</defs>
</svg>
