<svg width="159" height="159" viewBox="0 0 159 159" fill="none" xmlns="http://www.w3.org/2000/svg">
<g clip-path="url(#clip0_1_77)">
<path d="M86.2589 89.1607C88.7245 88.6665 91.0661 87.6836 93.1457 86.2698C95.2253 84.856 97.0006 83.04 98.3669 80.9289L92.0867 78.6389C90.4095 82.5389 88.4281 86.1799 86.2589 89.1607Z" fill="#F5F5F9"/>
<path d="M76.2704 87.9517C78.0619 86.6653 81.3067 82.6281 84.301 75.8003L77.9444 73.4824C75.8409 80.6351 75.7256 85.8134 76.2704 87.9517Z" fill="#F5F5F9"/>
<path d="M63.8804 68.354C63.5672 70.8486 63.7567 73.3807 64.4378 75.8009C65.1189 78.2211 66.2777 80.4804 67.8459 82.4456C68.1046 78.7688 68.9318 74.7069 70.1583 70.6431L63.8804 68.354Z" fill="#F5F5F9"/>
<path d="M97.2333 59.064C96.9748 62.7414 96.1473 66.8032 94.9204 70.868L101.201 73.158C101.514 70.6629 101.324 68.1303 100.643 65.7096C99.9614 63.289 98.8021 61.0293 97.2333 59.064Z" fill="#F5F5F9"/>
<path d="M80.778 65.7108L87.1346 68.0287C89.2373 60.8781 89.3528 55.6999 88.8106 53.5602C87.0173 54.8459 83.7723 58.883 80.778 65.7108Z" fill="#F5F5F9"/>
<path d="M66.7143 60.583L72.9922 62.8721C74.6694 58.9728 76.6511 55.3312 78.8199 52.3509C76.3547 52.8455 74.0136 53.8287 71.9345 55.2425C69.8553 56.6563 68.0804 58.4722 66.7143 60.583Z" fill="#F5F5F9"/>
<path d="M128.102 38.9391L59.2666 13.8392C58.7563 13.6531 58.2144 13.5693 57.6717 13.5927C57.1291 13.616 56.5963 13.746 56.1039 13.9753C55.6115 14.2045 55.1691 14.5286 54.802 14.9288C54.4348 15.3291 54.1501 15.7977 53.9641 16.308L19.3259 111.301C19.1398 111.812 19.056 112.354 19.0793 112.896C19.1027 113.439 19.2327 113.972 19.462 114.464C19.6912 114.956 20.0152 115.399 20.4155 115.766C20.8157 116.133 21.2844 116.418 21.7947 116.604L90.6298 141.704C94.0175 142.935 97.7552 142.772 101.023 141.251C104.291 139.73 106.821 136.974 108.059 133.589L136.217 56.3687C137.448 52.9811 137.285 49.2433 135.764 45.9756C134.243 42.7079 131.487 40.1773 128.102 38.9391ZM84.2249 119.8L49.6819 107.205C48.6514 106.829 47.8123 106.059 47.3493 105.065C46.8864 104.07 46.8374 102.933 47.2131 101.902C47.5889 100.872 48.3587 100.033 49.3531 99.5695C50.3475 99.1066 51.4851 99.0576 52.5156 99.4333L87.0587 112.029C88.0892 112.405 88.9283 113.175 89.3912 114.169C89.8542 115.163 89.9032 116.301 89.5275 117.332C89.1517 118.362 88.3819 119.201 87.3875 119.664C86.3931 120.127 85.2555 120.176 84.2249 119.8ZM73.2513 96.231C68.2128 94.3938 63.8323 91.1037 60.6636 86.7769C57.495 82.4501 55.6805 77.2808 55.4498 71.9227C55.219 66.5647 56.5823 61.2586 59.3671 56.6753C62.152 52.0921 66.2335 48.4376 71.0953 46.1739C75.9572 43.9103 81.3811 43.1392 86.6812 43.9582C91.9813 44.7771 96.9195 47.1494 100.871 50.7749C104.823 54.4004 107.611 59.1164 108.883 64.3264C110.155 69.5365 109.853 75.0066 108.016 80.0451C105.545 86.7966 100.498 92.2925 93.9804 95.3269C87.4631 98.3613 80.0081 98.6865 73.2513 96.231Z" fill="#F5F5F9"/>
</g>
<defs>
<clipPath id="clip0_1_77">
<rect width="123.849" height="123.849" fill="white" transform="translate(42.4276) rotate(20.0338)"/>
</clipPath>
</defs>
</svg>
