<svg width="33" height="32" viewBox="0 0 33 32" fill="none" xmlns="http://www.w3.org/2000/svg">
<path d="M30.9375 5.91312H24.0925C24.7769 4.81562 24.9006 3.40062 24.2881 2.1575C23.6331 0.826875 22.3044 0 20.8194 0C20.225 0 19.6513 0.13375 19.1144 0.398125C17.8119 1.04 16.7981 2.28812 16.0925 3.42187C15.3869 2.2875 14.3737 1.03937 13.0706 0.3975C12.5344 0.13375 11.9613 0 11.3663 0C9.88188 0 8.5525 0.826875 7.8975 2.15687C7.285 3.40062 7.40875 4.815 8.09375 5.91312H1.25C0.5625 5.91312 0 6.47562 0 7.16312V13.6469C0 14.3344 0.5625 14.8969 1.25 14.8969H1.59125V20.25V22.75V29.1356C1.59125 30.4675 2.67063 31.5462 4.00125 31.5462H28.1856C29.5169 31.5462 30.5962 30.4669 30.5962 29.1356V14.8969H30.9375C31.625 14.8969 32.1875 14.3344 32.1875 13.6469V7.16312C32.1875 6.47562 31.625 5.91312 30.9375 5.91312ZM20.2194 2.64062C20.8863 2.3125 21.7231 2.605 22.0462 3.26187C22.3787 3.9375 22.1 4.7575 21.4256 5.08937C20.9081 5.34375 20.2369 5.47312 19.4287 5.47312C19.075 5.47312 18.7356 5.44312 18.4094 5.405C18.35 5.20437 18.2694 5.01437 18.1631 4.83937C18.7013 3.95187 19.4181 3.03562 20.2194 2.64062ZM10.1412 3.26125C10.3725 2.79187 10.8419 2.5 11.3669 2.5C11.5756 2.5 11.7781 2.5475 11.9669 2.64062C12.7687 3.03562 13.485 3.9525 14.0238 4.83875C13.9175 5.01437 13.8369 5.20375 13.7775 5.405C13.4513 5.44375 13.1125 5.47312 12.7587 5.47312C11.9513 5.47312 11.2787 5.34375 10.7625 5.09C10.0875 4.75687 9.80875 3.93687 10.1412 3.26125ZM14.8962 28.4212H4.71625V22.7494H14.8962V28.4212ZM4.71625 20.2494V14.8962H14.8962V20.2494H4.71625ZM27.4712 28.4212H17.2913V22.7494H27.4712V28.4212ZM27.4712 20.2494H17.2913V14.8962H27.4712V20.2494Z" fill="#0088CF"/>
</svg>
