<svg width="31" height="32" viewBox="0 0 31 32" fill="none" xmlns="http://www.w3.org/2000/svg">
<g clip-path="url(#clip0_1_177)">
<path d="M24.2036 21.206C24.4251 21.5812 24.5367 22.0188 24.5367 22.5202C24.5367 23.2896 24.3077 23.9295 23.85 24.4429C23.3916 24.9562 22.7318 25.2592 21.8668 25.3499V26.6661H20.7656V25.3556C19.326 25.2076 18.4348 24.3686 18.0904 22.8422L19.7929 22.3975C19.9501 23.3577 20.4725 23.8385 21.3596 23.8385C21.774 23.8385 22.0805 23.7364 22.2755 23.5296C22.4706 23.3236 22.569 23.0771 22.569 22.7855C22.569 22.484 22.4706 22.2551 22.2755 22.1017C22.0805 21.9465 21.6455 21.7498 20.9719 21.5111C20.3666 21.301 19.8934 21.0941 19.5526 20.8861C19.2123 20.6814 18.936 20.3954 18.7242 20.026C18.5101 19.6549 18.4043 19.2231 18.4043 18.7324C18.4043 18.0883 18.5954 17.5072 18.9738 16.9917C19.3542 16.4769 19.95 16.1626 20.7656 16.0471V15.0301H21.8667V16.0471C23.0967 16.1949 23.8952 16.8918 24.2587 18.1378L22.7389 18.7607C22.4439 17.9068 21.9877 17.4788 21.3672 17.4788C21.0568 17.4788 20.8072 17.5734 20.6197 17.7648C20.4307 17.9561 20.3362 18.1871 20.3362 18.4599C20.3362 18.7365 20.4268 18.9485 20.6084 19.098C20.7904 19.2458 21.1779 19.4296 21.774 19.6472C22.427 19.8859 22.9417 20.1131 23.3123 20.3253C23.6851 20.5377 23.9802 20.8329 24.2036 21.206ZM31 20.8479C31 26.2041 26.6635 30.545 21.3127 30.545C15.9616 30.545 11.6251 26.2041 11.6251 20.8479C11.6251 15.492 15.9616 11.1512 21.3127 11.1512C26.6635 11.1512 31 15.492 31 20.8479ZM29.0627 20.8479C29.0627 16.5697 25.5869 13.0906 21.3127 13.0906C17.0387 13.0906 13.5626 16.5697 13.5626 20.8479C13.5626 25.1263 17.0386 28.6056 21.3127 28.6056C25.5868 28.6056 29.0627 25.1263 29.0627 20.8479ZM15.5 3.39375H27.1251C27.6606 3.39375 28.0936 3.06786 28.0936 2.66637V1.2118C28.0936 0.81038 27.6606 0.484741 27.1251 0.484741H15.5C14.9645 0.484741 14.5312 0.81038 14.5312 1.2118V2.66637C14.5313 3.06786 14.9645 3.39375 15.5 3.39375ZM15.5 7.27245H27.1251C27.6606 7.27245 28.0936 6.94668 28.0936 6.5452V5.09069C28.0936 4.68914 27.6606 4.36331 27.1251 4.36331H15.5C14.9645 4.36331 14.5312 4.68908 14.5312 5.09069V6.54526C14.5313 6.94668 14.9645 7.27245 15.5 7.27245ZM0.968632 26.6661H12.3931C11.8142 25.7797 11.3658 24.8004 11.0688 23.757H0.968632C0.433236 23.7569 0 24.0826 0 24.4846V25.9387C0 26.3402 0.433236 26.6661 0.968632 26.6661ZM12.5937 27.6358H0.968632C0.433236 27.6358 0 27.9614 0 28.3629V29.8176C0 30.219 0.433236 30.545 0.968632 30.545H12.5937C13.1292 30.545 13.5626 30.219 13.5626 29.8176V28.3629C13.5626 27.9614 13.1293 27.6358 12.5937 27.6358ZM0.968632 22.7876H10.8418C10.7245 22.1569 10.6565 21.511 10.6565 20.8479C10.6565 20.5204 10.6753 20.1984 10.7056 19.8784H0.968632C0.433236 19.8784 0 20.2041 0 20.6058V22.0599C0 22.4619 0.433236 22.7876 0.968632 22.7876ZM15.5 11.1512H16.9C18.2454 10.5338 19.7362 10.1815 21.3127 10.1815C22.8864 10.1815 24.3797 10.5338 25.7249 11.1512H27.1251C27.6606 11.1512 28.0936 10.8254 28.0936 10.424V8.96939C28.0936 8.56797 27.6606 8.24201 27.1251 8.24201H15.5C14.9645 8.24201 14.5312 8.56797 14.5312 8.96939V10.424C14.5313 10.8254 14.9645 11.1512 15.5 11.1512ZM0.968632 11.1512H12.5937C13.1292 11.1512 13.5626 10.8254 13.5626 10.424V8.96939C13.5626 8.56797 13.1292 8.24201 12.5937 8.24201H0.968632C0.433236 8.24201 0 8.56797 0 8.96939V10.424C0 10.8254 0.433236 11.1512 0.968632 11.1512ZM0.968632 18.9087H10.8418C11.0309 17.8784 11.3697 16.903 11.8334 15.9996H0.968632C0.433236 15.9996 0 16.3252 0 16.7267V18.1817C0 18.5831 0.433236 18.9087 0.968632 18.9087ZM0.968632 15.03H12.3931C12.7376 14.4998 13.1311 14.0073 13.5626 13.5489V12.8481C13.5626 12.4467 13.1294 12.121 12.594 12.121H0.968632C0.433236 12.121 0 12.4466 0 12.8481V14.3027C0 14.7041 0.433236 15.03 0.968632 15.03Z" fill="#0088CF"/>
</g>
<defs>
<clipPath id="clip0_1_177">
<rect width="31" height="31.0298" fill="white"/>
</clipPath>
</defs>
</svg>
