<svg width="19" height="24" viewBox="0 0 19 24" fill="none" xmlns="http://www.w3.org/2000/svg">
<path d="M9.04683 7.00781C11.5078 7.00781 13.539 9.03906 13.539 11.5C13.539 14 11.5078 15.9922 9.04683 15.9922C6.54683 15.9922 4.55464 14 4.55464 11.5C4.55464 9.03906 6.54683 7.00781 9.04683 7.00781ZM9.04683 14.4297C10.6484 14.4297 11.9375 13.1406 11.9375 11.5C11.9375 9.89844 10.6484 8.60938 9.04683 8.60938C7.4062 8.60938 6.11714 9.89844 6.11714 11.5C6.11714 13.1406 7.44526 14.4297 9.04683 14.4297ZM14.75 6.85156C14.75 7.4375 14.2812 7.90625 13.6953 7.90625C13.1093 7.90625 12.6406 7.4375 12.6406 6.85156C12.6406 6.26562 13.1093 5.79688 13.6953 5.79688C14.2812 5.79688 14.75 6.26562 14.75 6.85156ZM17.7187 7.90625C17.7968 9.35156 17.7968 13.6875 17.7187 15.1328C17.6406 16.5391 17.3281 17.75 16.3125 18.8047C15.2968 19.8203 14.0468 20.1328 12.6406 20.2109C11.1953 20.2891 6.85933 20.2891 5.41401 20.2109C4.00776 20.1328 2.79683 19.8203 1.74214 18.8047C0.726514 17.75 0.414014 16.5391 0.335889 15.1328C0.257764 13.6875 0.257764 9.35156 0.335889 7.90625C0.414014 6.5 0.726514 5.25 1.74214 4.23438C2.79683 3.21875 4.00776 2.90625 5.41401 2.82812C6.85933 2.75 11.1953 2.75 12.6406 2.82812C14.0468 2.90625 15.2968 3.21875 16.3125 4.23438C17.3281 5.25 17.6406 6.5 17.7187 7.90625ZM15.8437 16.6562C16.3125 15.5234 16.1953 12.7891 16.1953 11.5C16.1953 10.25 16.3125 7.51562 15.8437 6.34375C15.5312 5.60156 14.9453 4.97656 14.2031 4.70312C13.0312 4.23438 10.2968 4.35156 9.04683 4.35156C7.75776 4.35156 5.02339 4.23438 3.89058 4.70312C3.10933 5.01562 2.52339 5.60156 2.21089 6.34375C1.74214 7.51562 1.85933 10.25 1.85933 11.5C1.85933 12.7891 1.74214 15.5234 2.21089 16.6562C2.52339 17.4375 3.10933 18.0234 3.89058 18.3359C5.02339 18.8047 7.75776 18.6875 9.04683 18.6875C10.2968 18.6875 13.0312 18.8047 14.2031 18.3359C14.9453 18.0234 15.5703 17.4375 15.8437 16.6562Z" fill="#242321"/>
</svg>
