<svg width="24" height="24" viewBox="0 0 24 24" fill="none" xmlns="http://www.w3.org/2000/svg">
<path d="M21.5989 6.10938C21.2864 7.4375 18.4739 11.4219 18.4739 11.4219C18.2395 11.8125 18.1223 12.0078 18.4739 12.4375C18.6301 12.6328 21.5598 15.4453 21.9895 16.7734C22.1848 17.4375 21.8723 17.75 21.2083 17.75H18.9036C18.0442 17.75 17.7708 17.0859 16.2083 15.5234C14.8411 14.1953 14.2551 14 13.9036 14C13.2005 14 13.3176 14.2734 13.3176 16.8906C13.3176 17.4375 13.1223 17.75 11.677 17.75C9.25515 17.75 6.55983 16.3047 4.64577 13.5703C1.79421 9.54688 1.01296 6.53906 1.01296 5.91406C1.01296 5.5625 1.16921 5.25 1.79421 5.25H4.0989C4.68483 5.25 4.91921 5.52344 5.15358 6.14844C6.2864 9.42969 8.1614 12.3203 8.94265 12.3203C9.25515 12.3203 9.37233 12.1641 9.37233 11.4219V8.02344C9.29421 6.46094 8.4739 6.34375 8.4739 5.79688C8.4739 5.52344 8.66921 5.25 9.05983 5.25H12.6536C13.1614 5.25 13.3176 5.52344 13.3176 6.10938V10.6797C13.3176 11.1484 13.552 11.3438 13.6692 11.3438C13.9817 11.3438 14.2161 11.1484 14.763 10.6406C16.4036 8.76562 17.5755 5.91406 17.5755 5.91406C17.7317 5.5625 18.0051 5.25 18.5911 5.25H20.8958C21.5989 5.25 21.7161 5.64062 21.5989 6.10938Z" fill="#0088CF"/>
</svg>
