<svg width="28" height="28" viewBox="0 0 28 28" fill="none" xmlns="http://www.w3.org/2000/svg">
<path d="M22.4256 19.0608L19.5912 17.0803C19.2206 16.8222 18.7874 16.6857 18.3381 16.6857C17.6236 16.6857 16.953 17.0361 16.5445 17.6222L15.8866 18.5652C14.7839 17.8256 13.5532 16.793 12.3806 15.6204C11.2078 14.4476 10.1752 13.2171 9.43603 12.1144L10.3783 11.4567C11.3676 10.7677 11.6109 9.40097 10.9203 8.40933L8.94021 5.57541C8.52599 4.98303 7.85778 4.62948 7.15282 4.62948C6.90865 4.62948 6.66897 4.67242 6.4406 4.7568C6.18169 4.85272 5.94051 4.97 5.70382 5.11847L5.31246 5.39404C5.21462 5.4703 5.12362 5.5534 5.03646 5.64056C4.55901 6.11801 4.21999 6.72213 4.02901 7.43649C3.21319 10.4949 5.23428 15.119 9.05813 18.9429C12.2693 22.154 16.1271 24.1491 19.126 24.1493C19.1262 24.1493 19.1264 24.1493 19.1266 24.1493C19.6397 24.1493 20.1234 24.0895 20.5647 23.972C21.2791 23.781 21.8832 23.442 22.36 22.965C22.4474 22.878 22.5307 22.7868 22.6196 22.6717L22.8956 22.2777C23.0308 22.0611 23.1481 21.8197 23.2442 21.5604C23.5779 20.6589 23.2414 19.6309 22.4256 19.0608Z" fill="#0088CF"/>
</svg>
