<svg width="50" height="50" viewBox="0 0 50 50" fill="none" xmlns="http://www.w3.org/2000/svg">
<path d="M9.9502 23.7227V45.8701H2.64745V23.7227H9.9502ZM6.29394 29.3037C6.60916 29.3037 6.91729 29.2102 7.17938 29.0351C7.44147 28.86 7.64575 28.6111 7.76638 28.3199C7.887 28.0286 7.91856 27.7082 7.85707 27.399C7.79557 27.0899 7.64378 26.8059 7.42089 26.583C7.198 26.3601 6.91402 26.2083 6.60487 26.1468C6.29571 26.0853 5.97526 26.1169 5.68404 26.2375C5.39282 26.3582 5.14391 26.5624 4.96878 26.8245C4.79366 27.0866 4.70019 27.3947 4.70019 27.71C4.70019 28.1327 4.8681 28.538 5.16699 28.8369C5.46587 29.1358 5.87125 29.3037 6.29394 29.3037Z" fill="#0088CF"/>
<path d="M31.9619 19.4082C31.9619 20.7963 31.5503 22.1533 30.7791 23.3075C30.0079 24.4617 28.9117 25.3613 27.6292 25.8925C26.3468 26.4237 24.9356 26.5627 23.5741 26.2919C22.2126 26.0211 20.962 25.3526 19.9805 24.3711C18.9989 23.3895 18.3305 22.1389 18.0597 20.7775C17.7888 19.416 17.9278 18.0048 18.4591 16.7223C18.9903 15.4398 19.8899 14.3437 21.0441 13.5725C22.1982 12.8013 23.5552 12.3896 24.9434 12.3896C26.8038 12.393 28.587 13.1335 29.9025 14.449C31.218 15.7646 31.9586 17.5478 31.9619 19.4082ZM24.9434 13.9463C23.8631 13.9465 22.8072 14.267 21.9091 14.8673C21.0111 15.4675 20.3111 16.3206 19.8979 17.3187C19.4846 18.3167 19.3766 19.4149 19.5875 20.4744C19.7983 21.5338 20.3186 22.5069 21.0825 23.2707C21.8464 24.0345 22.8196 24.5546 23.8791 24.7652C24.9386 24.9759 26.0368 24.8677 27.0347 24.4543C28.0327 24.0408 28.8857 23.3408 29.4858 22.4426C30.0859 21.5444 30.4062 20.4884 30.4062 19.4082C30.4044 17.96 29.8283 16.5716 28.8041 15.5477C27.78 14.5238 26.3916 13.9478 24.9434 13.9463Z" fill="#0088CF"/>
<path d="M26.6152 22.7158C26.1972 22.972 25.727 23.1312 25.2392 23.1816V23.3456C25.2435 23.4338 25.2274 23.5218 25.1921 23.6027C25.1569 23.6837 25.1035 23.7554 25.0361 23.8124C24.9267 23.9045 24.7885 23.9553 24.6455 23.956C24.5057 23.9571 24.3695 23.9122 24.2578 23.8281C24.1836 23.7725 24.1237 23.7 24.0833 23.6166C24.0428 23.5332 24.023 23.4413 24.0254 23.3486V23.166C23.5195 23.0751 23.1269 22.873 22.8535 22.58C22.5436 22.2601 22.3536 21.8431 22.3154 21.3994C22.2952 21.1709 22.3074 20.9408 22.3516 20.7158C22.3981 20.4526 22.4978 20.2018 22.6445 19.9785C22.8102 19.7392 23.0245 19.5375 23.2734 19.3867C23.5053 19.2429 23.7589 19.1377 24.0244 19.0751V16.9247C23.9216 16.9989 23.8287 17.0858 23.748 17.1835C23.6705 17.276 23.6111 17.3824 23.5732 17.497C23.5321 17.6239 23.5049 17.7549 23.4922 17.8876C23.4531 18.207 23.1992 18.4179 22.9062 18.3759C22.6494 18.3456 22.4541 18.1523 22.3887 17.7841C22.4033 17.1767 22.6016 16.6806 22.9746 16.3095C23.2651 16.0256 23.6279 15.8267 24.0234 15.7343V15.4716C24.0236 15.3518 24.0588 15.2346 24.1248 15.1346C24.1908 15.0346 24.2847 14.9561 24.3948 14.9089C24.5049 14.8616 24.6265 14.8476 24.7444 14.8687C24.8624 14.8897 24.9716 14.9449 25.0586 15.0273C25.1176 15.085 25.1641 15.1542 25.1952 15.2306C25.2263 15.3071 25.2413 15.3891 25.2392 15.4716V15.6669C25.4603 15.698 25.6773 15.7527 25.8867 15.83C26.1866 15.9381 26.4612 16.1067 26.6933 16.3251C26.912 16.5344 27.0838 16.7877 27.1972 17.0683C27.3098 17.3607 27.3523 17.6755 27.3213 17.9872C27.2699 18.5377 27.0074 19.0469 26.5889 19.4081C26.1997 19.7189 25.733 19.9174 25.2392 19.9824V22.0869C25.5153 22.0538 25.7789 21.9531 26.0068 21.7939C26.2283 21.6386 26.3899 21.4122 26.4648 21.1523C26.4815 21.0186 26.5471 20.8957 26.649 20.8075C26.7509 20.7193 26.8818 20.672 27.0166 20.6748C27.0989 20.6701 27.1813 20.6832 27.2582 20.7132C27.335 20.7432 27.4045 20.7894 27.4619 20.8486C27.5122 20.909 27.5473 20.9806 27.5643 21.0574C27.5813 21.1342 27.5797 21.214 27.5596 21.29C27.5124 21.5811 27.4038 21.8588 27.241 22.1046C27.0782 22.3505 26.8648 22.5588 26.6152 22.7158ZM26.1836 17.9189C26.1935 17.7688 26.1713 17.6184 26.1184 17.4776C26.0655 17.3368 25.9832 17.2089 25.8769 17.1025C25.7028 16.9309 25.4815 16.8153 25.2412 16.7705V18.8603C25.3394 18.8368 25.4352 18.8041 25.5273 18.7626C25.6799 18.6894 25.8208 18.594 25.9453 18.4794C26.017 18.4133 26.0739 18.3328 26.1123 18.2431C26.1488 18.1382 26.1727 18.0294 26.1836 17.9189ZM23.416 21.3544C23.4205 21.4171 23.4347 21.4787 23.458 21.5371C23.4856 21.621 23.528 21.6994 23.583 21.7685C23.666 21.8613 23.7653 21.9381 23.876 21.9951C23.9221 22.0205 23.9709 22.0408 24.0215 22.0556V20.2148C23.8748 20.2713 23.7432 20.3609 23.6367 20.4765C23.4775 20.6601 23.4023 20.9521 23.4121 21.3437L23.416 21.3544Z" fill="#0088CF"/>
<path d="M38.4336 21.2441C37.4607 21.2441 36.5097 20.9557 35.7008 20.4152C34.8919 19.8747 34.2614 19.1064 33.8891 18.2076C33.5168 17.3088 33.4194 16.3197 33.6092 15.3656C33.799 14.4114 34.2675 13.5349 34.9554 12.847C35.6433 12.1591 36.5198 11.6906 37.474 11.5008C38.4281 11.311 39.4172 11.4084 40.316 11.7807C41.2148 12.153 41.983 12.7835 42.5235 13.5924C43.064 14.4013 43.3525 15.3523 43.3525 16.3252C43.3512 17.6294 42.8326 18.8798 41.9104 19.802C40.9882 20.7242 39.7378 21.2429 38.4336 21.2441ZM38.4336 12.9629C37.7686 12.9631 37.1187 13.1604 36.5659 13.53C36.0131 13.8996 35.5823 14.4248 35.3279 15.0392C35.0736 15.6536 35.0071 16.3296 35.137 16.9817C35.2668 17.6339 35.5871 18.2329 36.0574 18.7031C36.5277 19.1732 37.1268 19.4933 37.779 19.623C38.4312 19.7526 39.1072 19.686 39.7215 19.4315C40.3358 19.177 40.8609 18.746 41.2303 18.1931C41.5997 17.6402 41.7969 16.9902 41.7969 16.3252C41.7961 15.4335 41.4415 14.5786 40.8109 13.9482C40.1803 13.3178 39.3253 12.9634 38.4336 12.9629Z" fill="#0088CF"/>
<path d="M30.6182 11.833C29.8565 11.8324 29.1121 11.606 28.4791 11.1825C27.8461 10.7589 27.3529 10.1572 27.0619 9.45335C26.7708 8.74952 26.6949 7.97519 26.8439 7.22825C26.9928 6.48131 27.3599 5.7953 27.8987 5.25695C28.4374 4.71859 29.1237 4.35205 29.8708 4.20368C30.6178 4.0553 31.3921 4.13175 32.0957 4.42335C32.7993 4.71495 33.4007 5.20861 33.8238 5.84194C34.2468 6.47526 34.4727 7.21981 34.4727 7.98145C34.4714 9.00306 34.0648 9.98241 33.3421 10.7045C32.6194 11.4266 31.6398 11.8325 30.6182 11.833ZM30.6182 5.68555C30.1639 5.68478 29.7196 5.81877 29.3416 6.07058C28.9635 6.32238 28.6686 6.68068 28.4942 7.10013C28.3199 7.51959 28.2739 7.98134 28.362 8.42696C28.4501 8.87257 28.6685 9.28203 28.9894 9.60351C29.3104 9.92499 29.7194 10.144 30.1649 10.2329C30.6104 10.3218 31.0722 10.2766 31.492 10.103C31.9117 9.9293 32.2705 9.63503 32.523 9.25739C32.7754 8.87974 32.9102 8.4357 32.9102 7.98145C32.9096 7.37337 32.6681 6.79029 32.2385 6.35995C31.8089 5.92961 31.2262 5.6871 30.6182 5.68555Z" fill="#0088CF"/>
<path d="M27.0391 28.751L28.4063 27.9014C28.8958 27.6047 29.4456 27.4214 30.0153 27.365C30.5849 27.3086 31.16 27.3804 31.6982 27.5752L32.3379 27.8418L29.1328 29.6084C28.4609 29.3242 27.7539 29.0342 27.0391 28.751Z" fill="#0088CF"/>
<path d="M39.584 27.9873L40.3408 28.3408L33.4619 31.5107C33.002 31.2988 32.2373 30.9521 31.3076 30.5429L35.7773 28.0801C36.3619 27.7726 37.0095 27.6043 37.6698 27.5882C38.3301 27.5721 38.9852 27.7087 39.584 27.9873Z" fill="#0088CF"/>
<path d="M13.0351 30.8593C13.0762 30.8349 17.1543 28.3701 19.9883 28.5156C22.3916 28.6416 30.1064 32.0127 32.9863 33.3506C33.5751 33.7906 34.0937 34.3174 34.5244 34.9131C34.6132 35.0413 34.663 35.1925 34.6678 35.3485C34.6727 35.5044 34.6324 35.6584 34.5518 35.792C34.4675 35.9512 34.3384 36.0823 34.1805 36.1691C34.0226 36.2559 33.8427 36.2945 33.6631 36.2802L21.4404 35.4121C21.3181 35.4033 21.1952 35.4187 21.0788 35.4574C20.9624 35.4961 20.8548 35.5573 20.7621 35.6376C20.6693 35.7179 20.5933 35.8157 20.5384 35.9254C20.4835 36.0351 20.4507 36.1545 20.4419 36.2768C20.4331 36.3992 20.4485 36.522 20.4872 36.6384C20.5259 36.7548 20.5872 36.8625 20.6675 36.9552C20.7478 37.0479 20.8455 37.1239 20.9552 37.1788C21.0649 37.2338 21.1843 37.2666 21.3066 37.2754L33.5303 38.1435C34.0618 38.1844 34.5938 38.0717 35.063 37.8187C35.5322 37.5658 35.9188 37.1833 36.1768 36.7168C36.4324 36.2763 36.5569 35.772 36.5357 35.2632C36.5144 34.7544 36.3482 34.2622 36.0566 33.8447C35.7902 33.4676 35.4929 33.1132 35.168 32.7851L42.8828 29.2295H42.8887L43.5332 28.9365C44.1605 28.6928 44.8388 28.6098 45.5064 28.695C46.1739 28.7803 46.8096 29.0312 47.3555 29.4248L32.8887 40.7138C32.0328 41.4325 31.0096 41.9239 29.9136 42.1425C28.8177 42.3611 27.6843 42.3 26.6182 41.9648L13.0293 38.3701C12.9512 38.3494 12.8708 38.3389 12.79 38.3388H11.8164V30.9912H12.5488C12.7199 30.9926 12.8882 30.947 13.0351 30.8593Z" fill="#0088CF"/>
</svg>
