<svg width="36" height="36" viewBox="0 0 36 36" fill="none" xmlns="http://www.w3.org/2000/svg">
<path d="M20.3107 30.3001C20.2808 30.2914 20.2522 30.3171 20.2579 30.3475L20.5271 31.8108C19.7007 31.9596 18.8503 32.037 18 32.037C10.2927 32.037 4.02866 25.806 4.02866 18.1467C4.02866 14.5998 5.37009 11.2255 7.81345 8.64261L6.07082 7.01196C3.20826 10.0411 1.6333 13.9928 1.6333 18.1467C1.6333 27.1153 8.97519 34.4175 18 34.4175C18.994 34.4175 19.9942 34.3282 20.9583 34.1496L21.1738 35.333C21.1794 35.3635 21.2153 35.3775 21.2402 35.3589L25.8164 31.9394C25.838 31.9232 25.8318 31.8894 25.8058 31.8819L20.3107 30.3001Z" fill="#0088CF"/>
<path d="M18 1.88195C17.2693 1.88195 16.5328 1.92953 15.8142 2.02478L15.6372 0.668751C15.6332 0.638331 15.5983 0.622744 15.5728 0.639946L10.8463 3.82348C10.8181 3.84253 10.8238 3.88545 10.8561 3.8965L16.248 5.74643C16.2771 5.75638 16.3066 5.73252 16.3027 5.70221L16.1315 4.38742C16.7484 4.30413 17.3771 4.26245 18 4.26245C25.7072 4.26245 31.9712 10.4934 31.9712 18.1467C31.9712 21.289 30.9472 24.2467 29.0009 26.7105L30.8873 28.1805C33.163 25.2941 34.3667 21.8246 34.3667 18.1467C34.3667 9.17818 27.0248 1.88195 18 1.88195Z" fill="#0088CF"/>
<path d="M17.9999 7.20142C12.0458 7.20142 7.20142 12.0458 7.20142 17.9999C7.20142 23.9545 12.0458 28.7989 17.9999 28.7989C23.9545 28.7989 28.7989 23.9545 28.7989 17.9999C28.7989 12.0458 23.9545 7.20142 17.9999 7.20142ZM17.9999 27.6739C12.666 27.6739 8.32642 23.3343 8.32642 17.9999C8.32642 12.666 12.666 8.32642 17.9999 8.32642C23.3343 8.32642 27.6739 12.666 27.6739 17.9999C27.6739 23.3343 23.3343 27.6739 17.9999 27.6739Z" fill="#0088CF"/>
<path d="M17.9999 10.5491C13.8849 10.5491 10.5491 13.885 10.5491 18C10.5491 22.115 13.8849 25.4509 17.9999 25.4509C22.1149 25.4509 25.4508 22.115 25.4508 18C25.4508 13.885 22.1149 10.5491 17.9999 10.5491ZM17.9997 17.4373C19.3933 17.4373 20.5271 18.5711 20.5271 19.9647C20.5271 21.1639 19.685 22.1664 18.5622 22.4234V23.376H17.4372V22.4233C16.3148 22.1662 15.4729 21.1638 15.4729 19.9647H16.5979C16.5979 20.7376 17.2268 21.3666 17.9997 21.3666C18.7732 21.3666 19.4021 20.7376 19.4021 19.9647C19.4021 19.1913 18.7732 18.5623 17.9997 18.5623C16.6067 18.5623 15.4729 17.4285 15.4729 16.0354C15.4729 14.8364 16.3148 13.834 17.4372 13.5768V12.6236H18.5622V13.5767C19.685 13.8338 20.5271 14.8363 20.5271 16.0354H19.4021C19.4021 15.2626 18.7732 14.6336 17.9997 14.6336C17.2268 14.6336 16.5979 15.2626 16.5979 16.0354C16.5979 16.8083 17.2268 17.4373 17.9997 17.4373Z" fill="#0088CF"/>
</svg>
