<svg width="159" height="159" viewBox="0 0 159 159" fill="none" xmlns="http://www.w3.org/2000/svg">
<g clip-path="url(#clip0_1_86)">
<path d="M128.102 38.9391L59.2665 13.8392C58.7562 13.6531 58.2143 13.5693 57.6717 13.5927C57.129 13.616 56.5963 13.746 56.1039 13.9753C55.6115 14.2045 55.1691 14.5286 54.8019 14.9288C54.4347 15.3291 54.15 15.7977 53.964 16.308L19.3258 111.301C19.1397 111.812 19.0559 112.354 19.0793 112.896C19.1026 113.439 19.2326 113.972 19.4619 114.464C19.6912 114.956 20.0152 115.399 20.4154 115.766C20.8157 116.133 21.2843 116.418 21.7946 116.604L90.6298 141.704C94.0174 142.935 97.7552 142.772 101.023 141.251C104.291 139.73 106.821 136.974 108.059 133.589L136.217 56.3687C137.448 52.9811 137.285 49.2433 135.764 45.9756C134.242 42.7079 131.487 40.1773 128.102 38.9391ZM84.2249 119.8L49.6819 107.205C48.6513 106.829 47.8123 106.059 47.3493 105.065C46.8863 104.07 46.8373 102.933 47.2131 101.902C47.5888 100.872 48.3586 100.033 49.353 99.5695C50.3474 99.1066 51.485 99.0576 52.5156 99.4333L87.0586 112.029C88.0891 112.405 88.9282 113.175 89.3912 114.169C89.8542 115.163 89.9032 116.301 89.5274 117.332C89.1516 118.362 88.3819 119.201 87.3874 119.664C86.393 120.127 85.2554 120.176 84.2249 119.8ZM73.2512 96.231C68.2127 94.3938 63.8322 91.1037 60.6636 86.7769C57.4949 82.4501 55.6805 77.2808 55.4497 71.9227C55.2189 66.5647 56.5822 61.2586 59.3671 56.6753C62.152 52.0921 66.2334 48.4376 71.0953 46.1739C75.9571 43.9103 81.381 43.1392 86.6811 43.9582C91.9812 44.7771 96.9195 47.1494 100.871 50.7749C104.823 54.4004 107.611 59.1164 108.883 64.3264C110.155 69.5365 109.853 75.0066 108.015 80.0451C105.545 86.7966 100.498 92.2925 93.9804 95.3269C87.463 98.3613 80.008 98.6865 73.2512 96.231Z" fill="#F5F5F9"/>
<g clip-path="url(#clip1_1_86)">
<path d="M88.6216 77.1292C88.6799 76.5607 88.6792 76.0449 88.6196 75.5826C88.5602 75.12 88.4049 74.6288 88.1535 74.1075C87.9025 73.5867 87.6629 73.1518 87.4355 72.8026C87.2084 72.4534 86.8734 72.0296 86.4309 71.5312C85.9888 71.0331 85.6332 70.6514 85.365 70.3863C85.0962 70.1213 84.7033 69.7478 84.1866 69.2663C83.7296 68.8364 83.3911 68.5122 83.1705 68.2938C82.9502 68.0753 82.6652 67.7766 82.3155 67.3972C81.9658 67.0181 81.7162 66.7067 81.5666 66.4636C81.4171 66.2204 81.2674 65.9367 81.1174 65.6124C80.9674 65.2881 80.8955 64.979 80.9014 64.685C80.9077 64.3911 80.9722 64.094 81.0952 63.7941C81.4169 63.0099 82.0255 62.5115 82.921 62.2995C83.8165 62.0876 84.8123 62.2063 85.9081 62.6559C86.3923 62.8545 86.8588 63.1233 87.3057 63.4617C87.7527 63.8002 88.1211 64.126 88.41 64.4401C88.6992 64.7543 88.9608 65.0772 89.1953 65.4092C89.4297 65.7412 89.5919 65.9862 89.6821 66.1444C89.7721 66.3027 89.8278 66.4063 89.8479 66.4551C89.9507 66.632 90.0895 66.736 90.2652 66.7678C90.4428 66.8272 90.6135 66.7893 90.7769 66.6544L93.2148 64.7033C93.4478 64.5294 93.5091 64.2985 93.3981 64.0103C93.3572 63.9126 93.3041 63.7966 93.2374 63.6614C93.1718 63.5266 93.0154 63.2671 92.7685 62.8827C92.5218 62.4986 92.2443 62.1321 91.9363 61.7833C91.6277 61.4346 91.2051 61.0354 90.6684 60.5862C90.1321 60.1369 89.549 59.7429 88.9197 59.4039L90.1689 56.3587C90.2351 56.1973 90.2378 56.0433 90.1769 55.897C90.1156 55.7508 90.0043 55.6443 89.8425 55.578L87.5066 54.6197C87.3567 54.5582 87.2045 54.5597 87.05 54.6244C86.8954 54.6891 86.7874 54.7963 86.7259 54.9463L85.4483 58.0606C83.4954 57.6636 81.7077 57.8332 80.0853 58.569C78.4629 59.305 77.3251 60.4686 76.672 62.0605C76.4781 62.5334 76.3427 63.0034 76.2658 63.4702C76.1886 63.9373 76.1525 64.3706 76.1571 64.7699C76.1616 65.1695 76.2292 65.5879 76.3596 66.0256C76.49 66.4631 76.625 66.8487 76.7644 67.182C76.904 67.5153 77.112 67.8871 77.3885 68.2968C77.6651 68.7069 77.9069 69.0455 78.1142 69.3124C78.3217 69.5787 78.6085 69.906 78.9756 70.2918C79.3426 70.6783 79.6348 70.9765 79.8517 71.1871C80.0687 71.3972 80.3641 71.6871 80.7386 72.0558C81.262 72.5535 81.6466 72.9304 81.892 73.1861C82.1376 73.4419 82.4425 73.7825 82.8071 74.2084C83.1714 74.6338 83.4199 74.9885 83.553 75.2723C83.6859 75.556 83.7797 75.8774 83.8346 76.2367C83.8895 76.596 83.8508 76.9373 83.7182 77.2604C83.3444 78.1716 82.7012 78.7296 81.7883 78.9341C80.8755 79.1393 79.9516 79.05 79.0175 78.6668C78.5911 78.4919 78.1828 78.2708 77.794 78.0035C76.4177 77.0881 75.312 75.7923 74.477 74.1158L74.4566 74.067C74.4046 73.8979 74.2875 73.7891 74.1051 73.7414C73.9111 73.6887 73.75 73.7035 73.6219 73.786L70.8817 75.3905C70.614 75.5501 70.5287 75.7913 70.6254 76.114C70.6547 76.2069 70.7129 76.3524 70.8003 76.5497C70.8879 76.7476 71.0676 77.0736 71.3386 77.5291C71.61 77.9842 71.9234 78.4358 72.2783 78.8849C72.6333 79.3336 73.1133 79.8303 73.7187 80.3752C74.3243 80.9197 74.9861 81.3999 75.7049 81.816L74.4628 84.8438C74.4012 84.994 74.4029 85.1461 74.4674 85.3007C74.532 85.4554 74.6393 85.5632 74.7892 85.6247L77.1251 86.5829C77.2869 86.6493 77.4408 86.6519 77.5871 86.5907C77.7333 86.5296 77.8394 86.4181 77.9057 86.2562L79.1478 83.2284C81.1051 83.6811 82.9189 83.5054 84.5894 82.7015C86.2599 81.8977 87.4573 80.6135 88.1812 78.8488C88.4171 78.272 88.5647 77.6991 88.6216 77.1292Z" fill="#F5F5F9"/>
</g>
</g>
<defs>
<clipPath id="clip0_1_86">
<rect width="123.849" height="123.849" fill="white" transform="translate(42.4276) rotate(20.0338)"/>
</clipPath>
<clipPath id="clip1_1_86">
<rect width="33.5115" height="33.5115" fill="white" transform="translate(73.0178 48.6763) rotate(22.3045)"/>
</clipPath>
</defs>
</svg>
